<?xml version="1.0" standalone="no"?>
<!DOCTYPE svg PUBLIC "-//W3C//DTD SVG 1.1//EN" "http://www.w3.org/Graphics/SVG/1.1/DTD/svg11.dtd" >
<svg xmlns="http://www.w3.org/2000/svg">
<metadata>Generated by IcoMoon</metadata>
<defs>
<font id="icomoon" horiz-adv-x="1024">
<font-face units-per-em="1024" ascent="960" descent="-64" />
<missing-glyph horiz-adv-x="1024" />
<glyph unicode="&#x20;" d="" horiz-adv-x="512" />
<glyph unicode="&#xe600;" d="M117.029 343.771h789.943v-29.257h-789.943v29.257zM936.229 212.114h-848.457c-25.6 0-43.886 18.286-43.886 43.886v555.886c0 25.6 18.286 43.886 43.886 43.886h848.457c25.6 0 43.886-18.286 43.886-43.886v-351.086h-29.257v351.086c0 7.314-7.314 14.629-14.629 14.629h-848.457c-7.314 0-14.629-7.314-14.629-14.629v-555.886c0-7.314 7.314-14.629 14.629-14.629h848.457c7.314 0 14.629 7.314 14.629 14.629h29.257c0-25.6-18.286-43.886-43.886-43.886zM760.686 36.571h-29.257c0 3.657 0 7.314-3.657 10.971-21.943 21.943-102.4 18.286-186.514 18.286h-58.514c-84.114 0-164.571 0-186.514-18.286-3.657-3.657-3.657-7.314-3.657-10.971h-29.257c0 10.971 3.657 21.943 10.971 29.257 29.257 29.257 102.4 29.257 208.457 29.257h58.514c102.4 0 179.2 0 208.457-29.257 7.314-7.314 10.971-18.286 10.971-29.257zM497.371 182.857h29.257v-102.4h-29.257v102.4z" />
<glyph unicode="&#xe601;" d="M742.4-7.314h-460.8c-21.943 0-40.229 18.286-40.229 40.229v654.629h29.257v-654.629c0-7.314 7.314-14.629 14.629-14.629h460.8c7.314 0 14.629 7.314 14.629 14.629v811.886c0 7.314-7.314 14.629-14.629 14.629h-464.457c-7.314 0-14.629-7.314-14.629-14.629v-40.229h-25.6v40.229c0 21.943 18.286 40.229 40.229 40.229h460.8c21.943 0 40.229-18.286 40.229-40.229v-808.229c0-25.6-18.286-43.886-40.229-43.886zM727.771 157.257h-120.686v29.257h95.086v530.286h-380.343v-530.286h113.371v-29.257h-138.971v588.8h431.543zM526.629 32.914c-14.629 0-32.914 7.314-43.886 18.286s-18.286 29.257-18.286 47.543c0 18.286 7.314 32.914 21.943 47.543l18.286-18.286c-7.314-7.314-14.629-18.286-14.629-29.257s3.657-18.286 10.971-25.6c14.629-14.629 40.229-10.971 54.857 3.657l18.286-18.286c-10.971-18.286-29.257-25.6-47.543-25.6zM464.457 804.571h109.714v-29.257h-109.714v29.257z" />
<glyph unicode="&#xe602;" d="M512 367.13c-60.402 0-109.478 49.077-109.478 109.478s49.077 109.478 109.478 109.478c60.402 0 109.478-49.077 109.478-109.478s-49.077-109.478-109.478-109.478zM512 552.11c-41.527 0-75.502-33.976-75.502-79.277s33.976-79.277 75.502-79.277 75.502 33.976 75.502 79.277-33.976 79.277-75.502 79.277zM761.157 185.924h-30.201c0 64.177-98.153 120.804-218.956 120.804s-218.956-56.627-218.956-120.804h-30.201c0 83.052 109.478 151.005 249.157 151.005s249.157-67.953 249.157-151.005zM202.44 521.909c-52.852 0-94.378 41.527-94.378 90.602s41.527 90.602 94.378 90.602 94.378-37.751 94.378-86.827-45.302-94.378-94.378-94.378zM202.44 676.689c-33.976 0-60.402-26.426-60.402-60.402s26.426-60.402 60.402-60.402 60.402 26.426 60.402 60.402-26.426 60.402-60.402 60.402zM387.421 355.805h-30.201c0 60.402-64.177 101.928-154.78 101.928s-154.78-41.527-154.78-101.928h-33.976c0 75.502 79.277 132.129 188.756 132.129 105.703 3.775 184.981-52.852 184.981-132.129zM821.56 521.909c-52.852 0-94.378 41.527-94.378 94.378s41.527 94.378 94.378 94.378 94.378-41.527 94.378-94.378-41.527-94.378-94.378-94.378zM821.56 676.689c-33.976 0-60.402-26.426-60.402-60.402s26.426-60.402 60.402-60.402 60.402 26.426 60.402 60.402-26.426 60.402-60.402 60.402zM1010.315 355.805h-30.201c0 60.402-64.177 101.928-154.78 101.928s-154.78-41.527-154.78-101.928h-30.201c0 79.277 79.277 135.904 184.981 135.904s184.981-56.627 184.981-135.904z" />
<glyph unicode="&#xe603;" d="M716.8 171.886c-80.457 0-208.457 0-307.2 0-69.486 0-128 0-153.6 0v29.257c25.6 0 84.114 0 153.6 0 98.743 0 226.743 0 307.2 0 201.143 0 226.743 73.143 226.743 149.943s-21.943 124.343-135.314 146.286h-10.971v10.971c-10.971 73.143-73.143 128-149.943 128-21.943 0-40.229-3.657-58.514-10.971l-7.314-3.657-7.314 7.314c-36.571 29.257-84.114 47.543-135.314 47.543-91.429 0-168.229-58.514-182.857-146.286l-3.657-14.629h-14.629c-3.657 0-10.971 0-14.629 0-80.457 0-146.286-65.829-146.286-146.286 0-32.914 3.657-58.514 14.629-84.114l-25.6-10.971c-10.971 25.6-14.629 58.514-14.629 91.429 0 95.086 76.8 175.543 175.543 175.543 0 0 3.657 0 3.657 0 21.943 102.4 106.057 164.571 208.457 164.571 54.857 0 106.057-18.286 146.286-54.857 18.286 7.314 40.229 10.971 62.171 10.971 87.771 0 160.914-58.514 179.2-142.629 131.657-25.6 149.943-102.4 149.943-171.886-3.657-120.686-84.114-175.543-259.657-175.543z" />
<glyph unicode="&#xe604;" d="M512 197.486c-179.2 0-362.057 36.571-362.057 109.714h29.257c0-32.914 128-80.457 336.457-80.457s336.457 47.543 336.457 80.457h29.257c-7.314-73.143-190.171-109.714-369.371-109.714zM512 438.857c-179.2 0-362.057 36.571-362.057 102.4h29.257c0-29.257 131.657-73.143 336.457-73.143s336.457 43.886 336.457 73.143h29.257c-7.314-65.829-190.171-102.4-369.371-102.4zM512-18.286c-47.543 0-95.086 3.657-135.314 7.314-69.486 7.314-226.743 29.257-226.743 95.086v526.629h29.257v-526.629c0-18.286 62.171-51.2 201.143-65.829 95.086-10.971 204.8-7.314 296.229 3.657l3.657-29.257c-54.857-7.314-109.714-10.971-168.229-10.971zM782.629 14.628l-7.314 25.6c58.514 18.286 73.143 36.571 73.143 43.886v640c-62.171-40.229-219.429-54.857-336.457-54.857-146.286 0-362.057 25.6-362.057 95.086v29.257c0 65.829 182.857 102.4 362.057 102.4s362.057-36.571 362.057-102.4v-709.486c0-29.257-29.257-51.2-91.429-69.486zM512 866.743c-204.8 0-336.457-43.886-336.457-73.143v-29.257c0-25.6 117.029-69.486 336.457-69.486s336.457 43.886 336.457 69.486v29.257c0 29.257-131.657 73.143-336.457 73.143zM632.686 98.743h171.886v-29.257h-171.886v29.257zM705.829 168.228h29.257v-171.886h-29.257v171.886z" horiz-adv-x="1040" />
<glyph unicode="&#xe605;" d="M508.343 482.743c-43.886 0-80.457 36.571-80.457 80.457s36.571 80.457 80.457 80.457c43.886 0 80.457-36.571 80.457-80.457h-25.6c0 29.257-25.6 54.857-54.857 54.857s-54.857-25.6-54.857-54.857c0-29.257 25.6-54.857 54.857-54.857v-25.6zM632.686 58.514h-248.686l-3.657 3.657c-40.229 47.543-62.171 117.029-62.171 201.143 0 25.6 0 54.857 3.657 91.429 10.971 98.743 29.257 212.114 54.857 307.2 29.257 117.029 62.171 193.829 98.743 219.429l3.657 3.657h3.657c18.286 3.657 36.571 3.657 54.857 0h3.657l3.657-3.657c36.571-29.257 69.486-102.4 98.743-219.429 25.6-95.086 43.886-208.457 54.857-307.2 3.657-36.571 3.657-65.829 3.657-91.429 0-87.771-21.943-157.257-62.171-201.143l-7.314-3.657zM398.629 87.771h223.086c32.914 40.229 51.2 102.4 51.2 179.2 0 21.943 0 54.857-3.657 87.771-18.286 179.2-73.143 449.829-138.971 508.343-14.629 0-25.6 0-40.229 0-65.829-58.514-120.686-329.143-138.971-508.343-3.657-36.571-3.657-65.829-3.657-87.771-3.657-76.8 14.629-138.971 51.2-179.2zM248.686-14.629c0 0 0 0 0 0-10.971 0-21.943 7.314-25.6 21.943l25.6 10.971c0 0 0-3.657 0-3.657s3.657 3.657 3.657 3.657c21.943 29.257 65.829 84.114 138.971 84.114v-25.6c-58.514 0-95.086-40.229-117.029-69.486-7.314-14.629-14.629-21.943-25.6-21.943zM175.543 157.257c-14.629 69.486-7.314 109.714 18.286 124.343 18.286 10.971 40.229 29.257 62.171 54.857 36.571 40.229 62.171 84.114 62.171 84.114l21.943-14.629c0-3.657-29.257-47.543-65.829-87.771-18.286-29.257-43.886-47.543-65.829-62.171-14.629-7.314-18.286-43.886-7.314-95.086l-25.6-3.657zM775.314-14.629c-10.971 0-18.286 7.314-25.6 18.286-21.943 32.914-58.514 69.486-117.029 69.486v25.6c73.143 0 117.029-51.2 138.971-84.114 0-3.657 3.657-3.657 3.657-3.657s0 3.657 0 3.657c58.514 146.286 62.171 226.743 40.229 237.714-65.829 36.571-131.657 142.629-135.314 146.286l21.943 14.629c0 0 65.829-106.057 124.343-138.971 29.257-14.629 32.914-54.857 18.286-128-10.971-51.2-29.257-106.057-47.543-146.286 0-3.657-10.971-10.971-21.943-14.629 0 0 0 0 0 0zM340.114 182.857h351.086v-25.6h-351.086v25.6zM457.143 398.628h106.057v-25.6h-106.057v25.6z" />
<glyph unicode="&#xe606;" d="M698.514-40.229h-369.371l-3.657 7.314c-3.657 7.314-84.114 182.857 106.057 402.286l25.6-21.943c-153.6-179.2-117.029-321.829-106.057-358.4h329.143c14.629 40.229 58.514 215.771-171.886 424.229-281.6 252.343-193.829 486.4-190.171 493.714l3.657 10.971h376.686l3.657-10.971c3.657-7.314 73.143-186.514-98.743-402.286l-25.6 18.286c138.971 171.886 109.714 321.829 98.743 362.057h-329.143c-14.629-43.886-51.2-237.714 179.2-446.171 277.943-252.343 179.2-464.457 175.543-471.771l-3.657-7.314zM223.086 837.486h32.914v-797.257h-32.914v797.257zM768 837.486h32.914v-797.257h-32.914v797.257zM142.629 917.943h735.086v-32.914h-735.086v32.914zM142.629-10.972h735.086v-32.914h-735.086v32.914z" />
<glyph unicode="&#xe607;" d="M512 21.943c-7.314 0-14.629 3.657-18.286 7.314l-391.314 391.314c-10.971 10.971-10.971 29.257 0 36.571l120.686 120.686c-18.286 3.657-36.571 14.629-51.2 29.257-18.286 21.943-32.914 51.2-32.914 80.457s10.971 58.514 32.914 80.457c21.943 21.943 47.543 32.914 80.457 32.914 29.257 0 58.514-10.971 80.457-32.914 18.286-21.943 32.914-51.2 32.914-80.457h-25.6c0 21.943-10.971 43.886-25.6 62.171-14.629 14.629-36.571 25.6-62.171 25.6-21.943 0-43.886-7.314-62.171-25.6-14.629-18.286-21.943-40.229-21.943-62.171s7.314-43.886 25.6-62.171c14.629-14.629 36.571-25.6 62.171-25.6h32.914l-164.571-160.914c0 0 0 0 0 0l387.657-387.657c0 0 0 0 0 0l387.657 387.657c0 0 0 0 0 0s0 0 0 0l-120.686 120.686c-3.657-18.286-14.629-36.571-29.257-51.2-18.286-21.943-47.543-32.914-76.8-32.914s-58.514 10.971-80.457 32.914c-21.943 21.943-32.914 47.543-32.914 80.457s10.971 58.514 32.914 80.457c14.629 14.629 32.914 25.6 51.2 29.257l-131.657 128c0 0 0 0 0 0l-25.6-21.943-18.286 18.286 25.6 25.6c10.971 10.971 29.257 10.971 36.571 0l171.886-171.886h-32.914c-21.943 0-43.886-7.314-62.171-25.6-14.629-14.629-25.6-36.571-25.6-62.171s7.314-43.886 25.6-62.171c14.629-14.629 36.571-25.6 62.171-25.6 21.943 0 43.886 7.314 62.171 25.6 14.629 14.629 25.6 36.571 25.6 62.171v32.914l160.914-160.914c3.657-3.657 7.314-10.971 7.314-18.286s-3.657-14.629-7.314-18.286l-387.657-394.971c-3.657-3.657-10.971-7.314-18.286-7.314z" />
<glyph unicode="&#xe608;" d="M512-7.314l-10.971 14.629c-14.629 25.6-420.571 599.771-266.971 753.371 73.143 73.143 171.886 113.371 277.943 113.371s204.8-40.229 277.943-113.371c153.6-153.6-248.686-727.771-263.314-753.371l-14.629-14.629zM512 848.457c-98.743 0-190.171-36.571-256-106.057-109.714-109.714 138.971-530.286 259.657-702.171 120.686 171.886 369.371 588.8 256 702.171-69.486 69.486-160.914 106.057-259.657 106.057zM515.657 358.4c-58.514 0-120.686 21.943-164.571 69.486-95.086 87.771-95.086 234.057-3.657 325.486l18.286-18.286c-80.457-80.457-76.8-208.457 3.657-288.914s208.457-80.457 288.914-3.657c36.571 36.571 58.514 87.771 58.514 142.629s-21.943 106.057-62.171 146.286l18.286 18.286c43.886-43.886 69.486-102.4 69.486-164.571s-21.943-120.686-65.829-164.571c-43.886-40.229-102.4-62.171-160.914-62.171z" />
<glyph unicode="&#xe609;" d="M512 197.486c-179.2 0-362.057 36.571-362.057 109.714h29.257c0-32.914 128-80.457 332.8-80.457s332.8 47.543 332.8 80.457h29.257c0-73.143-182.857-109.714-362.057-109.714zM512 438.857c-179.2 0-362.057 36.571-362.057 102.4h29.257c0-29.257 131.657-73.143 332.8-73.143 204.8 0 332.8 43.886 332.8 73.143h29.257c0-65.829-182.857-102.4-362.057-102.4zM512-18.286c-47.543 0-95.086 3.657-135.314 7.314-69.486 7.314-226.743 29.257-226.743 95.086v526.629h29.257v-526.629c0-18.286 62.171-51.2 201.143-65.829 91.429-10.971 204.8-7.314 292.571 3.657l3.657-29.257c-51.2-7.314-106.057-10.971-164.571-10.971zM782.629 14.628l-7.314 25.6c58.514 18.286 73.143 32.914 73.143 43.886v640c-62.171-40.229-219.429-54.857-332.8-54.857-146.286 0-362.057 25.6-362.057 95.086v29.257c0 65.829 182.857 102.4 362.057 102.4s362.057-36.571 362.057-102.4v-709.486c-3.657-29.257-32.914-51.2-95.086-69.486zM512 866.743c-204.8 0-332.8-43.886-332.8-73.143v-29.257c0-25.6 113.371-69.486 332.8-69.486s332.8 43.886 332.8 69.486v29.257c0 29.257-128 73.143-332.8 73.143zM632.686 98.743h171.886v-29.257h-171.886v29.257zM705.829 168.228h29.257v-171.886h-29.257v171.886z" />
<glyph unicode="&#xe60a;" d="M398.629 175.543c-10.971 21.943-3.657 32.914 0 40.229s3.657 7.314 0 14.629c-25.6 43.886-54.857 80.457-84.114 113.371-32.914 40.229-65.829 76.8-84.114 124.343-10.971 25.6-18.286 51.2-21.943 80.457 0 14.629-3.657 25.6-3.657 40.229 0 10.971 0 18.286 0 25.6 0 10.971 0 21.943 3.657 36.571 7.314 58.514 36.571 113.371 80.457 157.257s98.743 73.143 160.914 84.114v0c18.286 3.657 40.229 3.657 62.171 3.657s40.229 0 62.171-3.657v0c0 0 0 0 0 0s0 0 3.657 0v0c138.971-25.6 241.371-142.629 241.371-277.943 0-32.914-7.314-80.457-18.286-131.657v0c-21.943-62.171-54.857-102.4-91.429-146.286-25.6-32.914-54.857-62.171-80.457-106.057-3.657-7.314-3.657-7.314 0-14.629s10.971-21.943 0-40.229l-25.6 14.629c3.657 7.314 3.657 7.314 0 14.629s-10.971 21.943 0 43.886c25.6 47.543 54.857 80.457 84.114 113.371 36.571 40.229 65.829 76.8 84.114 135.314 10.971 47.543 18.286 91.429 18.286 124.343 0 120.686-91.429 223.086-219.429 248.686 0 0 0 0 0 0s0 0 0 0v0c-18.286 3.657-40.229 3.657-58.514 3.657s-36.571 0-58.514-3.657c-113.371-29.257-201.143-117.029-215.771-223.086 0-10.971-3.657-21.943-3.657-32.914 0-7.314 0-14.629 0-25.6v0c0-10.971 0-25.6 3.657-36.571 3.657-25.6 7.314-51.2 18.286-73.143 18.286-43.886 47.543-76.8 80.457-117.029 29.257-36.571 58.514-69.486 87.771-117.029 10.971-21.943 3.657-32.914 0-43.886-3.657-7.314-3.657-7.314 0-14.629l-25.6-10.971zM563.2-18.286c-7.314 0-14.629 0-21.943 0s-18.286 0-29.257 0c-10.971 0-18.286 0-29.257 0-29.257-3.657-65.829-7.314-76.8 40.229l29.257 3.657c3.657-18.286 7.314-18.286 43.886-14.629 10.971 0 18.286 0 29.257 0s21.943 0 29.257 0c36.571-3.657 40.229 0 43.886 14.629l29.257-3.657c0-32.914-25.6-40.229-47.543-40.229zM394.971 87.771h226.743v-29.257h-226.743v29.257zM394.971 146.286h226.743v-29.257h-226.743v29.257zM570.514 288.914h-29.257c0 51.2 3.657 98.743 10.971 135.314-14.629 3.657-29.257 7.314-40.229 14.629-10.971-7.314-25.6-10.971-36.571-14.629 7.314-36.571 10.971-80.457 10.971-135.314h-29.257c0 58.514-3.657 102.4-10.971 131.657-47.543 3.657-91.429 32.914-91.429 84.114 0 21.943 18.286 40.229 40.229 40.229 10.971 0 40.229-7.314 62.171-58.514 3.657-10.971 7.314-21.943 10.971-36.571 7.314 0 14.629 3.657 21.943 7.314-14.629 18.286-21.943 40.229-21.943 62.171 0 32.914 18.286 58.514 47.543 58.514s47.543-25.6 47.543-58.514c0-21.943-10.971-43.886-25.6-62.171 7.314-3.657 14.629-7.314 21.943-7.314 3.657 14.629 7.314 25.6 10.971 36.571 21.943 54.857 51.2 62.171 65.829 62.171 21.943 0 36.571-18.286 36.571-40.229 0-51.2-43.886-80.457-91.429-87.771-7.314-25.6-10.971-69.486-10.971-131.657zM391.314 522.971c-7.314 0-10.971-7.314-10.971-10.971 0-29.257 25.6-47.543 54.857-54.857-3.657 10.971-7.314 18.286-7.314 25.6-14.629 29.257-29.257 40.229-36.571 40.229zM636.343 522.971c-7.314 0-25.6-10.971-36.571-43.886-3.657-7.314-7.314-14.629-7.314-21.943 29.257 7.314 54.857 25.6 54.857 54.857-3.657 7.314-7.314 10.971-10.971 10.971zM512 552.228c-10.971 0-18.286-14.629-18.286-29.257 0-18.286 7.314-32.914 18.286-43.886 10.971 10.971 18.286 29.257 18.286 43.886s-7.314 29.257-18.286 29.257z" />
<glyph unicode="&#xe60b;" d="M672.914-29.257l-160.914 204.8-157.257-204.8v288.914h29.257v-204.8l128 168.229 131.657-168.229v318.171h29.257zM453.486 329.143l-47.543 32.914-58.514 10.971-32.914 47.543-47.543 32.914-10.971 58.514-32.914 47.543 10.971 58.514-10.971 58.514 32.914 47.543 10.971 58.514 47.543 32.914 32.914 47.543 58.514 10.971 47.543 32.914 58.514-10.971 58.514 10.971 47.543-32.914 58.514-10.971 32.914-47.543 47.543-32.914 10.971-58.514 32.914-47.543-10.971-58.514 10.971-58.514-32.914-47.543-10.971-58.514-47.543-32.914-32.914-47.543-58.514-10.971-47.543-32.914-58.514 14.629-58.514-14.629zM365.714 398.628l51.2-10.971 43.886-29.257 51.2 10.971 51.2-10.971 43.886 29.257 51.2 14.629 29.257 43.886 43.886 29.257 10.971 51.2 29.257 43.886-10.971 51.2 7.314 47.543-29.257 43.886-7.314 51.2-43.886 29.257-29.257 43.886-51.2 10.971-43.886 29.257-51.2-10.971-51.2 10.971-43.886-29.257-51.2-10.971-29.257-43.886-43.886-29.257-7.314-51.2-29.257-43.886 10.971-51.2-10.971-51.2 29.257-43.886 7.314-51.2 43.886-29.257 29.257-43.886zM512 431.543c-102.4 0-186.514 84.114-186.514 186.514h29.257c0-87.771 69.486-157.257 157.257-157.257s157.257 69.486 157.257 157.257-69.486 157.257-157.257 157.257v29.257c102.4 0 186.514-84.114 186.514-186.514s-84.114-186.514-186.514-186.514z" />
<glyph unicode="&#xe60c;" d="M702.171 69.486h-380.343c-18.286 0-32.914 14.629-32.914 32.914v541.257h21.943v-541.257c0-7.314 3.657-10.971 10.971-10.971h380.343c7.314 0 10.971 3.657 10.971 10.971v672.914c0 7.314-3.657 10.971-10.971 10.971h-380.343c-7.314 0-10.971-3.657-10.971-10.971v-32.914h-25.6v32.914c0 18.286 14.629 32.914 32.914 32.914h380.343c18.286 0 32.914-14.629 32.914-32.914v-669.257c7.314-21.943-10.971-36.571-29.257-36.571zM691.2 208.457h-102.4v21.943h80.457v438.857h-314.514v-438.857h91.429v-21.943h-113.371v482.743h358.4zM522.971 102.4c-14.629 0-25.6 3.657-36.571 14.629s-14.629 25.6-14.629 40.229c0 14.629 7.314 29.257 18.286 40.229l14.629-14.629c-7.314-7.314-10.971-14.629-10.971-25.6 0-7.314 3.657-14.629 7.314-21.943 7.314-7.314 14.629-7.314 21.943-7.314s18.286 3.657 25.6 10.971l14.629-14.629c-7.314-14.629-21.943-21.943-40.229-21.943 3.657 0 0 0 0 0zM471.771 738.743h91.429v-21.943h-91.429v21.943z" />
<glyph unicode="&#xe60d;" d="M936.229 106.057h-848.457c-14.629 0-25.6 10.971-25.6 25.6v533.943l449.829-277.943 424.229 274.286v80.457h-874.057c0 14.629 10.971 25.6 25.6 25.6h848.457c14.629 0 25.6-10.971 25.6-25.6v-98.743l-449.829-292.571-424.229 263.314v-482.743l848.457 3.657v413.257h29.257v-413.257c-3.657-14.629-14.629-29.257-29.257-29.257z" />
<glyph unicode="&#xe60e;" d="M947.2 800.914v43.886h-870.4v-43.886c-14.629 0-29.257 14.629-29.257 29.257v14.629c0 14.629 14.629 29.257 29.257 29.257h866.743c14.629 0 29.257-14.629 29.257-29.257v-14.629c0-18.286-10.971-29.257-25.6-29.257zM526.629 3.657h-29.257v274.286h376.686v493.714h-724.114v-490.057h201.143v-29.257h-201.143c-14.629 0-29.257 14.629-29.257 29.257v490.057c0 14.629 14.629 29.257 29.257 29.257h724.114c14.629 0 29.257-14.629 29.257-29.257v-490.057c0-14.629-14.629-29.257-29.257-29.257h-347.429v-248.686zM460.804 179.699l20.688-20.688-121.54-121.54-20.688 20.688 121.54 121.54zM561.414 177.978l121.54-121.54-20.688-20.688-121.54 121.54 20.688 20.688zM248.686 336.457l-21.943 18.286 190.171 190.171 109.714-106.057 248.686 241.371 21.943-21.943-270.629-259.657-109.714 106.057zM815.543 610.743h-29.257v58.514h-58.514v29.257h87.771z" />
<glyph unicode="&#xe60f;" d="M234.057 369.371c-3.657 0-3.657 0-7.314 0-10.971 3.657-18.286 14.629-18.286 29.257 0 186.514 146.286 332.8 332.8 332.8v-18.286c-175.543 0-314.514-138.971-314.514-314.514 0-3.657 0-10.971 3.657-10.971s10.971 3.657 14.629 10.971c62.171 117.029 171.886 186.514 296.229 186.514h7.314v-153.6l204.8 215.771-204.8 215.771v-40.229h-18.286v51.2l7.314 3.657c3.657 3.657 14.629 7.314 21.943 3.657v0l215.771-223.086c3.657-3.657 3.657-7.314 3.657-10.971s0-7.314-3.657-10.971l-215.771-223.086c-3.657-3.657-14.629-7.314-21.943-3.657l-3.657 3.657v153.6c-113.371-3.657-215.771-69.486-270.629-175.543-7.314-14.629-18.286-21.943-29.257-21.943zM471.771-7.314c-3.657 0-7.314 0-7.314 3.657l-215.771 223.086c-3.657 3.657-3.657 7.314-3.657 10.971s0 7.314 3.657 10.971l215.771 223.086c3.657 3.657 14.629 7.314 21.943 3.657l3.657-3.657v-153.6c113.371 3.657 215.771 69.486 270.629 175.543 7.314 14.629 21.943 25.6 36.571 21.943 10.971-3.657 18.286-14.629 18.286-29.257 0-186.514-146.286-332.8-332.8-332.8v18.286c175.543 0 314.514 138.971 314.514 314.514 0 3.657 0 10.971-3.657 10.971s-10.971-3.657-14.629-10.971c-62.171-117.029-171.886-186.514-296.229-186.514h-7.314v153.6l-208.457-215.771 208.457-215.771v40.229h18.286v-54.857h-7.314c-3.657-3.657-7.314-7.314-14.629-7.314z" />
<glyph unicode="&#xe610;" d="M182.857 18.286c-3.657 0-3.657 0-7.314 0l7.314 29.257c0 0 0 0 0 0 18.286-3.657 106.057 36.571 168.229 65.829 10.971 7.314 25.6 10.971 36.571 14.629l10.971-25.6c-10.971-3.657-25.6-10.971-36.571-14.629-102.4-47.543-157.257-69.486-179.2-69.486zM245.029 186.514l-29.257 10.971c3.657 3.657 7.314 18.286 0 21.943-106.057 73.143-168.229 179.2-168.229 292.571 0 102.4 47.543 193.829 131.657 266.971 84.114 69.486 193.829 109.714 310.857 109.714 98.743 0 190.171-25.6 266.971-76.8 76.8-47.543 131.657-117.029 157.257-193.829l-29.257-10.971c-51.2 146.286-215.771 252.343-398.629 252.343-219.429-3.657-405.943-157.257-405.943-347.429 0-106.057 54.857-204.8 153.6-270.629 10.971-7.314 21.943-21.943 10.971-54.857zM881.371-7.314c-18.286 0-54.857 14.629-131.657 47.543-36.571 14.629-87.771 40.229-98.743 40.229-179.2 0-325.486 124.343-325.486 274.286s146.286 274.286 325.486 274.286c179.2 0 325.486-124.343 325.486-274.286 0-84.114-43.886-160.914-120.686-215.771 0 0 0-3.657 3.657-10.971l-29.257-10.971c-7.314 25.6 0 40.229 7.314 43.886 69.486 47.543 109.714 117.029 109.714 190.171 0 135.314-131.657 245.029-296.229 245.029-160.914 0-296.229-109.714-296.229-245.029s131.657-245.029 296.229-245.029c14.629 0 43.886-10.971 109.714-40.229 43.886-18.286 106.057-47.543 120.686-47.543 0 0 0 0 0 0s0 0 0 0l7.314-29.257c-3.657 3.657-7.314 3.657-7.314 3.657z" />
<glyph unicode="&#xe611;" d="M672.914 73.143c-14.629 0-32.914 3.657-69.486 14.629-32.914 10.971-80.457 21.943-106.057 21.943s-54.857-10.971-80.457-21.943c-21.943-7.314-43.886-14.629-62.171-14.629-43.886 0-84.114 29.257-98.743 73.143-73.143 29.257-113.371 76.8-153.6 120.686l21.943 18.286c40.229-47.543 76.8-87.771 146.286-117.029l7.314-3.657 3.657-7.314c10.971-36.571 40.229-62.171 73.143-62.171 14.629 0 29.257 7.314 51.2 14.629 29.257 10.971 62.171 21.943 91.429 21.943s80.457-14.629 113.371-21.943c32.914-7.314 47.543-14.629 58.514-14.629 29.257 0 43.886 10.971 54.857 21.943 14.629 14.629 18.286 36.571 21.943 51.2v7.314l7.314 3.657c84.114 47.543 128 135.314 131.657 259.657v10.971l10.971 3.657c36.571 10.971 58.514 36.571 58.514 65.829 0 43.886-80.457 62.171-102.4 69.486h-7.314l-3.657 7.314c-62.171 98.743-179.2 164.571-314.514 171.886-95.086 3.657-168.229-10.971-234.057-47.543v3.657h-3.657c-18.286 0-36.571 0-51.2 0-29.257-3.657-51.2-14.629-73.143-36.571-21.943-18.286-29.257-36.571-29.257-51.2 0-10.971 7.314-21.943 18.286-29.257 0 0 3.657 0 3.657-3.657l14.629-7.314-3.657-10.971c0-3.657-3.657-7.314-3.657-7.314-3.657-54.857-47.543-73.143-76.8-80.457-7.314-3.657-14.629-3.657-18.286-7.314v-76.8h-32.914v80.457c0 18.286 21.943 25.6 36.571 32.914 32.914 10.971 54.857 21.943 54.857 58.514v0 3.657c-10.971 7.314-21.943 25.6-21.943 43.886-3.657 25.6 10.971 51.2 36.571 76.8 29.257 25.6 54.857 36.571 87.771 43.886 18.286 3.657 36.571 3.657 54.857 3.657 69.486 40.229 149.943 54.857 245.029 51.2 69.486-3.657 138.971-21.943 197.486-54.857s102.4-76.8 135.314-128c51.2-14.629 124.343-40.229 124.343-98.743 0-40.229-25.6-73.143-69.486-91.429-3.657-124.343-51.2-215.771-138.971-270.629-3.657-25.6-14.629-47.543-29.257-62.171s-40.229-29.257-76.8-29.257zM296.229 453.486c-40.229 0-76.8 36.571-76.8 76.8s36.571 76.8 76.8 76.8v-29.257c-25.6 0-47.543-21.943-47.543-43.886 0-25.6 21.943-43.886 47.543-43.886s43.886 21.943 43.886 43.886h29.257c3.657-43.886-29.257-80.457-73.143-80.457zM757.029 548.571c-18.286 29.257-54.857 84.114-113.371 106.057l10.971 29.257c65.829-25.6 109.714-87.771 128-120.686l-25.6-14.629z" />
<glyph unicode="&#xe612;" d="M358.4 285.257h497.371v-29.257h-497.371v29.257zM347.429 340.114l-73.143 369.371h-135.314v14.629c0 40.229-32.914 73.143-73.143 73.143v29.257c51.2 0 95.086-36.571 102.4-87.771h131.657l76.8-391.314-29.257-7.314zM431.543 51.2c-47.543 0-87.771 40.229-87.771 87.771s40.229 87.771 87.771 87.771 87.771-40.229 87.771-87.771c0-47.543-40.229-87.771-87.771-87.771zM431.543 197.486c-32.914 0-58.514-25.6-58.514-58.514s25.6-58.514 58.514-58.514 58.514 25.6 58.514 58.514c0 32.914-25.6 58.514-58.514 58.514zM753.371 51.2c-47.543 0-87.771 40.229-87.771 87.771s40.229 87.771 87.771 87.771 87.771-40.229 87.771-87.771c0-47.543-40.229-87.771-87.771-87.771zM753.371 197.486c-32.914 0-58.514-25.6-58.514-58.514s25.6-58.514 58.514-58.514 58.514 25.6 58.514 58.514c0 32.914-25.6 58.514-58.514 58.514zM855.771 256v29.257l73.143 318.171v29.257c14.629 0 29.257-14.629 29.257-29.257v0l-73.143-321.829c0-14.629-14.629-25.6-29.257-25.6zM343.771 358.4h526.629v-29.257h-526.629v29.257z" />
<glyph unicode="&#xe613;" d="M526.629 80.457h-29.257c0 54.857-285.257 54.857-405.943 54.857-14.629 0-29.257 10.971-29.257 25.6v610.743c0 14.629 14.629 25.6 29.257 25.6 168.229 0 270.629-7.314 340.114-29.257l-7.314-25.6c-69.486 18.286-168.229 25.6-332.8 25.6v0-603.429c266.971 0 387.657-14.629 420.571-51.2 43.886 36.571 171.886 51.2 420.571 51.2v0 603.429c-299.886 0-405.943-58.514-405.943-113.371v-460.8h-29.257v460.8c0 87.771 157.257 138.971 431.543 138.971 14.629 0 29.257-10.971 29.257-25.6v-607.086c0-14.629-10.971-25.6-29.257-25.6-362.057 3.657-402.286-36.571-402.286-54.857z" />
<glyph unicode="&#xe614;" d="M512 223.086c-120.686 0-219.429 98.743-219.429 219.429s98.743 219.429 219.429 219.429v-29.257c-106.057 0-190.171-84.114-190.171-190.171 0-102.4 84.114-190.171 190.171-190.171s190.171 84.114 190.171 190.171h29.257c0-124.343-98.743-219.429-219.429-219.429zM599.771-25.6h-171.886c-18.286 0-29.257 14.629-29.257 29.257v91.429c-14.629 3.657-29.257 10.971-43.886 18.286l-65.829-65.829c-14.629-10.971-32.914-10.971-43.886 0l-124.343 124.343c-10.971 10.971-10.971 29.257 0 40.229l65.829 65.829c-7.314 14.629-14.629 29.257-18.286 43.886h-91.429c-14.629 0-29.257 14.629-29.257 29.257v171.886c0 18.286 14.629 29.257 29.257 29.257h91.429c7.314 18.286 14.629 36.571 21.943 54.857l25.6-14.629c-10.971-18.286-18.286-40.229-25.6-58.514l-3.657-10.971h-109.714c0 0 0 0 0 0v-171.886c0 0 0 0 0 0h113.371l3.657-10.971c7.314-21.943 14.629-40.229 25.6-58.514l3.657-10.971-80.457-80.457c0 0 0 0 0 0l124.343-124.343c0 0 0 0 0 0l80.457 80.457 10.971-3.657c18.286-10.971 40.229-18.286 58.514-25.6l10.971-3.657v-113.371c0 0 0 0 0 0h171.886c0 0 0 0 0 0v113.371l10.971 3.657c21.943 7.314 40.229 14.629 58.514 25.6l10.971 3.657 80.457-80.457c0 0 0 0 0 0l124.343 124.343c0 0 0 0 0 0l-80.457 80.457 3.657 10.971c10.971 18.286 18.286 40.229 25.6 58.514l3.657 10.971h113.371c0 0 0 0 0 0v171.886c0 0 0 0 0 0h-113.371l-3.657 10.971c-7.314 21.943-14.629 40.229-25.6 58.514l-3.657 10.971 80.457 80.457c0 0 0 0 0 0l-124.343 124.343c0 0 0 0 0 0l-80.457-76.8-10.971 3.657c-18.286 10.971-40.229 18.286-58.514 25.6l-10.971 3.657v109.714c0 0 0 0 0 0h-171.886c0 0 0 0 0 0v-113.371l-10.971-3.657c-21.943-7.314-40.229-14.629-58.514-25.6h-14.629l-76.8 76.8c0 0 0 0 0 0l-124.343-120.686c0 0 0 0 0 0s0 0 0 0l-21.943-21.943c-10.971 10.971-10.971 29.257 0 40.229l124.343 124.343c3.657 3.657 10.971 7.314 18.286 7.314s14.629-3.657 21.943-7.314l65.829-65.829c14.629 7.314 29.257 14.629 43.886 18.286v91.429c0 14.629 14.629 29.257 29.257 29.257h171.886c14.629 0 29.257-14.629 29.257-29.257v-91.429c14.629-3.657 29.257-10.971 43.886-18.286l65.829 65.829c3.657 3.657 10.971 7.314 21.943 7.314 0 0 0 0 0 0 7.314 0 14.629-3.657 21.943-7.314l124.343-124.343c7.314-7.314 7.314-14.629 7.314-21.943s-3.657-14.629-7.314-21.943l-65.829-65.829c7.314-14.629 14.629-29.257 18.286-43.886h91.429c14.629 0 29.257-14.629 29.257-29.257v-171.886c0-14.629-14.629-29.257-29.257-29.257h-91.429c-3.657-14.629-10.971-29.257-18.286-43.886l65.829-65.829c10.971-10.971 10.971-29.257 0-40.229l-124.343-124.343c-7.314-7.314-14.629-7.314-21.943-7.314 0 0 0 0 0 0-7.314 0-14.629 3.657-21.943 7.314l-65.829 65.829c-14.629-7.314-29.257-14.629-43.886-18.286v-91.429c3.657-18.286-10.971-29.257-25.6-29.257z" />
<glyph unicode="&#xe615;" d="M917.943-7.314h-811.886c-25.6 0-43.886 21.943-43.886 43.886v51.2l3.657 3.657c0 0 98.743 95.086 190.171 190.171l21.943-21.943c-80.457-76.8-168.229-160.914-186.514-179.2v-40.229c0-7.314 7.314-14.629 14.629-14.629h811.886c7.314 0 14.629 7.314 14.629 14.629v40.229c-84.114 84.114-340.114 332.8-340.114 384v387.657h-164.571v-384h-25.6v416.914h219.429v-416.914c3.657-29.257 171.886-212.114 336.457-369.371l3.657-3.657v-51.2c3.657-29.257-18.286-51.2-43.886-51.2z" />
<glyph unicode="&#xe616;" d="M512-29.257c-58.514 0-117.029 10.971-171.886 32.914s-106.057 54.857-149.943 98.743c-43.886 40.229-80.457 91.429-102.4 146.286-25.6 58.514-40.229 117.029-40.229 182.857 0 62.171 10.971 124.343 32.914 182.857 21.943 54.857 54.857 106.057 98.743 149.943 36.571 40.229 87.771 76.8 142.629 102.4 58.514 25.6 117.029 40.229 182.857 40.229 62.171 0 124.343-10.971 182.857-32.914 54.857-21.943 106.057-54.857 149.943-98.743 43.886-40.229 80.457-91.429 102.4-146.286 25.6-58.514 40.229-117.029 40.229-182.857 0-51.2-7.314-102.4-21.943-149.943l-29.257 7.314c14.629 47.543 21.943 95.086 21.943 142.629-3.657 117.029-51.2 226.743-135.314 307.2-84.114 84.114-197.486 128-314.514 124.343s-226.743-51.2-307.2-135.314c-80.457-84.114-124.343-197.486-120.686-314.514 7.314-237.714 201.143-427.886 438.857-427.886 3.657 0 7.314 0 10.971 0 43.886 0 87.771 7.314 128 21.943l7.314-29.257c-43.886-14.629-87.771-21.943-135.314-21.943-3.657 0-7.314 0-10.971 0zM888.686 146.286c-109.714 29.257-241.371 43.886-376.686 43.886s-252.343-14.629-362.057-43.886l-21.943 29.257c113.371 29.257 245.029 47.543 384 47.543s270.629-14.629 384-47.543l-7.314-29.257zM512 643.657c-131.657 0-259.657 14.629-369.371 43.886l7.314 29.257c106.057-29.257 234.057-43.886 362.057-43.886s256 14.629 362.057 40.229l7.314-29.257c-109.714-25.6-237.714-40.229-369.371-40.229zM512-29.257c-65.829 0-124.343 51.2-168.229 142.629-43.886 87.771-65.829 204.8-65.829 325.486 0 124.343 21.943 237.714 65.829 325.486 43.886 91.429 102.4 142.629 168.229 142.629s124.343-51.2 168.229-142.629c43.886-87.771 65.829-204.8 65.829-325.486 0-124.343-21.943-237.714-65.829-325.486-43.886-91.429-102.4-142.629-168.229-142.629zM512 877.714c-25.6 0-51.2-10.971-76.8-32.914s-47.543-51.2-65.829-91.429c-40.229-84.114-62.171-193.829-62.171-314.514s21.943-230.4 62.171-314.514c18.286-40.229 40.229-69.486 65.829-91.429s51.2-32.914 76.8-32.914c25.6 0 51.2 10.971 76.8 32.914s47.543 51.2 65.829 91.429c40.229 84.114 62.171 193.829 62.171 314.514s-21.943 230.4-62.171 314.514c-18.286 40.229-40.229 69.486-65.829 91.429s-51.2 32.914-76.8 32.914z" />
</font>
</defs>
</svg>
